<svg width="148" height="125" viewBox="0 0 148 125" fill="none" xmlns="http://www.w3.org/2000/svg">
<path fill-rule="evenodd" clip-rule="evenodd" d="M25.0577 47.1701C24.6116 47.3949 24.003 47.7519 23.7051 47.9633C23.1063 48.3885 6.95787 62.6084 6.21929 63.361C5.50764 64.086 4.51231 65.7712 4.15939 66.8484C3.98463 67.382 3.77536 68.3043 3.69421 68.8981L3.54688 69.9779L5.96337 82.3215L8.37987 94.665L8.94624 95.6507C9.76742 97.0796 10.6756 98.0433 12.1094 99.0067C13.3369 99.8316 13.6817 99.9635 24.1315 103.608C30.0486 105.671 35.171 107.42 35.5147 107.494C37.2896 107.874 39.7532 107.601 41.4756 106.833C43.0992 106.108 46.3329 103.354 46.5981 102.469C47.0723 100.888 45.7292 99.4172 44.1214 99.7571C43.6008 99.8673 43.2825 100.083 42.1147 101.119C40.4218 102.621 39.7738 103.012 38.5733 103.255C37.3277 103.507 36.8099 103.442 34.919 102.795C31.0912 101.484 16.4497 96.3548 15.6116 96.0309C14.4618 95.5867 13.8177 95.0939 13.0799 94.094L12.501 93.3099L10.1866 81.4876L7.87209 69.6652L8.16661 68.5866C8.32861 67.9935 8.64458 67.2443 8.8688 66.922C9.33336 66.2541 25.7903 51.6863 26.656 51.1766C27.3964 50.7408 29.0032 50.4304 29.8672 50.5567C30.8762 50.7041 51.5575 57.9768 52.2522 58.4286C52.5814 58.6426 53.1566 59.2175 53.5303 59.7058L54.2098 60.5937L56.5243 72.416L58.8387 84.2383L58.6254 85.093C58.2947 86.4174 57.8182 87.1609 56.5521 88.327C55.2177 89.5561 54.9704 90.0355 55.163 91.0194C55.3275 91.86 55.8355 92.3921 56.7163 92.6463C57.6167 92.9062 58.1226 92.6949 59.4921 91.4869C61.4747 89.7379 62.6772 87.5454 63.0138 85.0659L63.1666 83.9394L60.7501 71.5958L58.3336 59.2523L57.7673 58.2666C56.7681 56.5278 55.1242 54.9722 53.4693 54.1995C52.8848 53.9265 38.797 48.9519 32.9928 46.9687C30.6729 46.1762 29.8123 46.0938 27.6598 46.4582C26.2264 46.7009 25.7067 46.843 25.0577 47.1701Z" fill="#E8EC23"/>
<path fill-rule="evenodd" clip-rule="evenodd" d="M100.501 6.84141C99.995 7.09624 99.305 7.50091 98.9674 7.74058C98.2885 8.22263 79.983 24.342 79.1458 25.1952C78.339 26.0169 77.2108 27.9273 76.8107 29.1483C76.6126 29.7532 76.3754 30.7988 76.2834 31.4719L76.1164 32.6959L78.8557 46.6883L81.595 60.6807L82.237 61.7981C83.1679 63.4179 84.1973 64.5102 85.8227 65.6023C87.2142 66.5374 87.605 66.687 99.4507 70.8179C106.158 73.1571 111.965 75.1393 112.354 75.2229C114.366 75.6544 117.159 75.3448 119.112 74.4737C120.952 73.6527 124.618 70.53 124.918 69.5273C125.456 67.7346 123.933 66.0676 122.111 66.453C121.521 66.5779 121.16 66.8227 119.836 67.9971C117.917 69.6992 117.182 70.1423 115.822 70.4181C114.41 70.7044 113.823 70.6305 111.679 69.8965C107.34 68.4108 90.7428 62.5962 89.7927 62.2291C88.4893 61.7255 87.7592 61.1668 86.9228 60.0334L86.2666 59.1446L83.643 45.743L81.0194 32.3415L81.3532 31.1188C81.5368 30.4464 81.895 29.5971 82.1492 29.2318C82.6758 28.4747 101.331 11.9609 102.312 11.3831C103.152 10.889 104.973 10.5373 105.953 10.6804C107.096 10.8474 130.54 19.0917 131.328 19.6038C131.701 19.8465 132.353 20.4981 132.777 21.0516L133.547 22.0581L136.17 35.4597L138.794 48.8612L138.552 49.83C138.177 51.3314 137.637 52.1742 136.202 53.4961C134.689 54.8894 134.409 55.4328 134.627 56.5482C134.814 57.501 135.39 58.1041 136.388 58.3924C137.409 58.687 137.982 58.4475 139.535 57.0781C141.782 55.0954 143.145 52.6101 143.527 49.7994L143.7 48.5223L140.961 34.53L138.222 20.5376L137.58 19.4202C136.447 17.4491 134.583 15.6858 132.707 14.8098C132.045 14.5003 116.075 8.86122 109.496 6.61317C106.866 5.71476 105.89 5.6214 103.45 6.03443C101.825 6.3095 101.236 6.47066 100.501 6.84141Z" fill="#0FBFE6"/>
<path fill-rule="evenodd" clip-rule="evenodd" d="M66.9905 39.0275C66.408 39.3212 65.6131 39.7874 65.224 40.0635C64.4419 40.6189 43.3511 59.1909 42.3865 60.1739C41.457 61.1207 40.157 63.3218 39.6961 64.7286C39.4678 65.4255 39.1945 66.6302 39.0885 67.4057L38.8961 68.816L42.0522 84.9374L45.2083 101.059L45.948 102.346C47.0205 104.212 48.2066 105.471 50.0793 106.729C51.6825 107.807 52.1329 107.979 65.7809 112.738C73.5089 115.434 80.1991 117.717 80.648 117.814C82.9662 118.311 86.1837 117.954 88.4333 116.951C90.5539 116.005 94.7773 112.407 95.1237 111.252C95.743 109.186 93.9889 107.265 91.8889 107.709C91.209 107.853 90.7932 108.135 89.268 109.488C87.0571 111.45 86.2107 111.96 84.6428 112.278C83.0159 112.608 82.3397 112.523 79.87 111.677C74.8707 109.965 55.748 103.266 54.6533 102.843C53.1517 102.263 52.3105 101.619 51.3468 100.313L50.5908 99.289L47.5679 83.8483L44.5451 68.4076L44.9298 66.9989C45.1414 66.2242 45.554 65.2457 45.8469 64.8248C46.4536 63.9525 67.9475 44.926 69.078 44.2603C70.0451 43.6911 72.1436 43.2858 73.2721 43.4507C74.5898 43.6431 101.601 53.1418 102.508 53.7318C102.938 54.0114 103.689 54.7622 104.178 55.3999L105.065 56.5596L108.088 72.0003L111.111 87.441L110.832 88.5572C110.4 90.287 109.778 91.258 108.124 92.781C106.381 94.3863 106.058 95.0124 106.31 96.2975C106.525 97.3953 107.188 98.0902 108.339 98.4223C109.515 98.7618 110.175 98.4858 111.964 96.908C114.553 94.6237 116.124 91.7602 116.564 88.5218L116.763 87.0505L113.607 70.9291L110.451 54.8077L109.711 53.5203C108.406 51.2493 106.259 49.2176 104.098 48.2083C103.335 47.8518 84.935 41.3547 77.3543 38.7646C74.3244 37.7295 73.2004 37.6219 70.3891 38.0978C68.5169 38.4147 67.8382 38.6004 66.9905 39.0275Z" fill="#EC2390"/>
</svg>
