<svg width="29" height="29" viewBox="0 0 29 29" fill="none" xmlns="http://www.w3.org/2000/svg">
<path fill-rule="evenodd" clip-rule="evenodd" d="M13.9018 0.111321C13.457 0.313177 8.53447 3.28611 8.33273 3.47466C7.96124 3.82189 7.97109 3.71373 7.97109 7.45418C7.97109 10.7644 7.97431 10.863 8.0912 11.1045C8.1573 11.2409 8.29576 11.4161 8.39882 11.4936C8.67691 11.7027 13.6778 14.693 13.9155 14.7923C14.1976 14.9102 14.6135 14.899 14.8728 14.7667C15.1519 14.6243 19.9397 11.7545 20.2355 11.5523C20.3584 11.4683 20.5298 11.2791 20.6164 11.1318L20.7738 10.864V7.49484C20.7738 3.82839 20.7766 3.86115 20.4408 3.51773C20.2382 3.31042 15.0339 0.169212 14.7153 0.0619269C14.4307 -0.0339325 14.1895 -0.0192841 13.9018 0.111321ZM5.9789 13.8964C5.89833 13.9324 4.62925 14.6817 3.15872 15.5613C1.46735 16.5731 0.41911 17.2359 0.305497 17.3653C0.206708 17.4778 0.0982507 17.6694 0.0644421 17.7911C-0.0242689 18.1106 -0.0201088 24.4612 0.0690123 24.7273C0.216141 25.1667 0.352782 25.2652 3.10804 26.9188C4.58941 27.8078 5.89323 28.5737 6.00544 28.6205C6.26536 28.7291 6.57134 28.7291 6.83126 28.6205C6.94347 28.5737 8.2473 27.8078 9.72867 26.9188C11.5573 25.8213 12.4676 25.242 12.5638 25.1144C12.6419 25.011 12.7345 24.821 12.7697 24.6921C12.8561 24.3756 12.8585 18.1015 12.7723 17.7911C12.7385 17.6694 12.63 17.4778 12.5312 17.3653C12.4176 17.2358 11.3699 16.5735 9.67798 15.5616C8.20745 14.6821 6.93052 13.9311 6.8404 13.8928C6.63796 13.8066 6.17542 13.8086 5.9789 13.8964ZM21.867 13.8823C21.7915 13.9143 20.5224 14.665 19.0468 15.5505C17.358 16.5641 16.2974 17.2365 16.1844 17.3653C16.0856 17.4778 15.9772 17.6694 15.9434 17.7911C15.857 18.1018 15.859 24.3466 15.9455 24.6901C15.9808 24.8304 16.0928 25.0351 16.1945 25.145C16.3001 25.2593 17.57 26.0587 19.1582 27.0107L21.937 28.6765H22.2973H22.6575L25.4364 27.0113C26.9647 26.0954 28.2973 25.2602 28.3976 25.1552C28.4997 25.0485 28.6093 24.8479 28.6467 24.6998C28.7354 24.3473 28.7395 18.1092 28.6512 17.7911C28.6174 17.6694 28.5087 17.4775 28.4097 17.3647C28.2956 17.2348 27.2199 16.554 25.4768 15.5083C22.7427 13.8682 22.7215 13.8569 22.3642 13.8406C22.1663 13.8315 21.9425 13.8503 21.867 13.8823Z" fill="black"/>
</svg>
