<svg width="28" height="30" viewBox="0 0 28 30" fill="none" xmlns="http://www.w3.org/2000/svg">
<path d="M25.25 8.58183V21.4181L14 28.125L2.75 21.4181V8.58183L14 1.87495L25.25 8.58183ZM14.9375 0.251202C14.6525 0.0866367 14.3291 0 14 0C13.6709 0 13.3475 0.0866367 13.0625 0.251202L1.8125 6.95808C1.52747 7.12264 1.29078 7.35933 1.12621 7.64436C0.961649 7.92938 0.875008 8.2527 0.875 8.58183V21.4181C0.875008 21.7472 0.961649 22.0705 1.12621 22.3556C1.29078 22.6406 1.52747 22.8773 1.8125 23.0418L13.0625 29.7487C13.3475 29.9133 13.6709 29.9999 14 29.9999C14.3291 29.9999 14.6525 29.9133 14.9375 29.7487L26.1875 23.0418C26.4725 22.8773 26.7092 22.6406 26.8738 22.3556C27.0384 22.0705 27.125 21.7472 27.125 21.4181V8.58183C27.125 8.2527 27.0384 7.92938 26.8738 7.64436C26.7092 7.35933 26.4725 7.12264 26.1875 6.95808L14.9375 0.251202Z" fill="#8F00BA"/>
</svg>
