<svg width="70" height="80" viewBox="0 0 70 80" fill="none" xmlns="http://www.w3.org/2000/svg">
<path d="M65 22.8849V57.1149L35 74.9999L5 57.1149V22.8849L35 4.99987L65 22.8849ZM37.5 0.669873C36.7399 0.231031 35.8777 0 35 0C34.1223 0 33.2601 0.231031 32.5 0.669873L2.5 18.5549C1.73992 18.9937 1.10875 19.6249 0.669905 20.3849C0.231064 21.145 2.22961e-05 22.0072 0 22.8849V57.1149C2.22961e-05 57.9925 0.231064 58.8547 0.669905 59.6148C1.10875 60.3749 1.73992 61.006 2.5 61.4449L32.5 79.3299C33.2601 79.7687 34.1223 79.9997 35 79.9997C35.8777 79.9997 36.7399 79.7687 37.5 79.3299L67.5 61.4449C68.2601 61.006 68.8913 60.3749 69.3301 59.6148C69.7689 58.8547 70 57.9925 70 57.1149V22.8849C70 22.0072 69.7689 21.145 69.3301 20.3849C68.8913 19.6249 68.2601 18.9937 67.5 18.5549L37.5 0.669873Z" fill="#EC2390" fill-opacity="0.72"/>
</svg>
