<svg width="418" height="406" viewBox="0 0 418 406" fill="none" xmlns="http://www.w3.org/2000/svg">
<g id="Group 19">
<path id="Crie uma jornada" d="M60.2112 134.414C60.2748 133.191 60.6074 132.109 61.2091 131.167C61.8114 130.213 62.6002 129.485 63.5756 128.983C64.563 128.482 65.6378 128.261 66.8003 128.321C68.1664 128.392 69.3417 128.784 70.3261 129.496C71.3104 130.208 72.0049 131.181 72.4093 132.416L70.45 132.314C70.1417 131.541 69.6686 130.934 69.0306 130.492C68.4047 130.051 67.6363 129.807 66.7255 129.759C65.8507 129.714 65.0552 129.877 64.339 130.248C63.6227 130.62 63.0473 131.172 62.6126 131.907C62.1785 132.629 61.9353 133.494 61.883 134.501C61.8313 135.495 61.9836 136.38 62.3398 137.156C62.6967 137.919 63.212 138.523 63.8859 138.967C64.5598 139.41 65.3342 139.655 66.209 139.7C67.1197 139.747 67.909 139.59 68.5767 139.228C69.2569 138.855 69.7905 138.3 70.1772 137.563L72.1366 137.665C71.6069 138.839 70.8157 139.729 69.7628 140.335C68.7105 140.93 67.5013 141.191 66.1352 141.12C64.9728 141.06 63.9262 140.735 62.9955 140.146C62.0774 139.545 61.368 138.746 60.8672 137.746C60.3664 136.747 60.1477 135.636 60.2112 134.414ZM76.4465 133.275C76.7634 132.726 77.1936 132.31 77.7371 132.026C78.2925 131.742 78.9537 131.621 79.7207 131.66L79.6329 133.35L79.2015 133.328C77.368 133.232 76.3995 134.179 76.2961 136.169L76.0178 141.526L74.382 141.441L74.8939 131.59L76.5297 131.675L76.4465 133.275ZM82.5277 130.382C82.2161 130.366 81.958 130.245 81.7535 130.018C81.549 129.791 81.4549 129.522 81.4711 129.21C81.4873 128.898 81.6088 128.64 81.8357 128.436C82.0627 128.231 82.3319 128.137 82.6435 128.153C82.9431 128.169 83.1891 128.29 83.3817 128.516C83.5862 128.743 83.6803 129.012 83.6641 129.324C83.6479 129.636 83.5264 129.894 83.2995 130.098C83.0845 130.303 82.8273 130.398 82.5277 130.382ZM83.2355 132.023L82.7236 141.874L81.0878 141.789L81.5997 131.938L83.2355 132.023ZM94.7749 137.183C94.7587 137.495 94.7236 137.823 94.6696 138.169L86.7962 137.76C86.8057 138.734 87.0957 139.512 87.6663 140.094C88.2494 140.665 88.9724 140.973 89.8352 141.018C90.5423 141.055 91.1379 140.923 91.6221 140.624C92.1189 140.314 92.4775 139.888 92.6979 139.346L94.4595 139.438C94.1466 140.371 93.5792 141.116 92.7571 141.674C91.9357 142.221 90.9377 142.463 89.7633 142.402C88.8286 142.353 88.0006 142.1 87.2794 141.642C86.5702 141.185 86.0258 140.562 85.6462 139.773C85.2673 138.972 85.1043 138.062 85.1572 137.044C85.2101 136.025 85.4602 135.143 85.9075 134.397C86.3549 133.651 86.9546 133.094 87.7068 132.724C88.4716 132.343 89.3333 132.178 90.292 132.228C91.2268 132.276 92.0431 132.523 92.7409 132.968C93.4388 133.413 93.9608 134.005 94.3069 134.744C94.6656 135.471 94.8216 136.284 94.7749 137.183ZM93.1029 136.754C93.1353 136.131 93.0252 135.59 92.7726 135.132C92.5207 134.663 92.1609 134.302 91.6934 134.049C91.2385 133.785 90.7234 133.638 90.1482 133.608C89.3213 133.565 88.6006 133.792 87.986 134.289C87.3833 134.786 87.0158 135.5 86.8833 136.431L93.1029 136.754ZM110.699 133.45L110.187 143.301L108.551 143.216L108.627 141.76C108.289 142.247 107.831 142.62 107.253 142.878C106.688 143.125 106.069 143.231 105.398 143.197C104.631 143.157 103.95 142.965 103.355 142.622C102.761 142.266 102.3 141.762 101.974 141.108C101.659 140.455 101.526 139.673 101.573 138.762L101.873 132.992L103.491 133.076L103.202 138.63C103.152 139.601 103.358 140.363 103.822 140.916C104.287 141.457 104.945 141.749 105.795 141.793C106.67 141.839 107.373 141.605 107.905 141.092C108.436 140.579 108.728 139.807 108.782 138.776L109.063 133.365L110.699 133.45ZM125.316 134.03C126.083 134.07 126.758 134.267 127.34 134.622C127.923 134.964 128.372 135.462 128.687 136.116C129.001 136.769 129.135 137.551 129.087 138.462L128.786 144.268L127.168 144.184L127.457 138.611C127.509 137.628 127.302 136.867 126.837 136.326C126.385 135.774 125.746 135.476 124.919 135.433C124.068 135.389 123.377 135.629 122.845 136.154C122.313 136.668 122.021 137.439 121.967 138.47L121.685 143.899L120.067 143.815L120.357 138.242C120.408 137.259 120.201 136.498 119.737 135.957C119.285 135.405 118.645 135.107 117.819 135.064C116.968 135.02 116.276 135.26 115.744 135.785C115.213 136.299 114.921 137.07 114.867 138.101L114.585 143.53L112.949 143.445L113.461 133.594L115.097 133.679L115.023 135.099C115.373 134.601 115.825 134.228 116.379 133.98C116.944 133.733 117.557 133.627 118.216 133.661C119.043 133.704 119.764 133.928 120.38 134.332C120.996 134.737 121.441 135.306 121.715 136.042C122.027 135.361 122.51 134.845 123.165 134.495C123.82 134.144 124.537 133.989 125.316 134.03ZM131.116 139.414C131.168 138.407 131.417 137.537 131.864 136.803C132.311 136.058 132.9 135.493 133.628 135.111C134.369 134.729 135.177 134.56 136.052 134.606C136.915 134.651 137.654 134.875 138.27 135.28C138.886 135.684 139.335 136.176 139.617 136.756L139.71 134.958L141.364 135.044L140.852 144.895L139.199 144.809L139.294 142.975C138.94 143.534 138.43 143.988 137.763 144.338C137.109 144.676 136.356 144.823 135.505 144.779C134.63 144.734 133.851 144.477 133.166 144.009C132.481 143.54 131.956 142.906 131.589 142.106C131.222 141.306 131.064 140.409 131.116 139.414ZM139.455 139.865C139.494 139.122 139.378 138.468 139.107 137.901C138.836 137.334 138.45 136.893 137.95 136.579C137.462 136.253 136.913 136.074 136.302 136.043C135.69 136.011 135.126 136.126 134.607 136.387C134.089 136.649 133.666 137.047 133.338 137.583C133.009 138.119 132.826 138.758 132.787 139.501C132.748 140.256 132.864 140.923 133.134 141.502C133.405 142.068 133.784 142.515 134.272 142.84C134.76 143.154 135.31 143.327 135.921 143.359C136.533 143.391 137.097 143.276 137.616 143.014C138.146 142.741 138.576 142.337 138.904 141.801C139.233 141.254 139.417 140.608 139.455 139.865ZM67.1925 149.612C66.8809 149.596 66.6229 149.475 66.4184 149.248C66.2259 149.022 66.1377 148.753 66.1539 148.441C66.1701 148.129 66.2856 147.871 66.5006 147.666C66.7275 147.461 66.9967 147.367 67.3083 147.383C67.6199 147.4 67.872 147.521 68.0645 147.747C68.269 147.974 68.3631 148.243 68.3469 148.555C68.3307 148.867 68.2092 149.125 67.9823 149.329C67.7673 149.534 67.5041 149.629 67.1925 149.612ZM67.2952 163.244C67.2497 164.119 66.9947 164.749 66.5302 165.133C66.0656 165.517 65.4079 165.688 64.557 165.643L63.6043 165.594L63.6762 164.21L64.3593 164.245C64.8147 164.269 65.1369 164.195 65.326 164.025C65.5271 163.855 65.6389 163.555 65.6613 163.123L66.2825 151.169L67.9183 151.254L67.2952 163.244ZM74.4633 161.634C73.5405 161.586 72.7125 161.333 71.9794 160.874C71.2582 160.416 70.7018 159.792 70.3102 159.003C69.9313 158.202 69.7682 157.292 69.8212 156.274C69.8735 155.267 70.1353 154.392 70.6066 153.647C71.0904 152.891 71.7205 152.329 72.4966 151.961C73.2734 151.581 74.1291 151.415 75.0639 151.463C75.9986 151.512 76.8326 151.766 77.5658 152.224C78.2996 152.671 78.8623 153.289 79.2538 154.078C79.6574 154.868 79.8327 155.773 79.7797 156.791C79.7268 157.81 79.4524 158.697 78.9565 159.452C78.4733 160.196 77.8373 160.758 77.0485 161.137C76.2598 161.517 75.398 161.683 74.4633 161.634ZM74.538 160.196C75.1252 160.226 75.6836 160.117 76.2133 159.868C76.7429 159.62 77.1778 159.228 77.518 158.693C77.8702 158.158 78.0669 157.495 78.108 156.704C78.1491 155.914 78.0282 155.234 77.7453 154.667C77.4623 154.099 77.076 153.671 76.5864 153.381C76.0974 153.079 75.5593 152.913 74.9721 152.883C74.3729 152.851 73.8145 152.961 73.2969 153.21C72.7918 153.448 72.3752 153.835 72.0469 154.371C71.7187 154.906 71.534 155.57 71.4929 156.361C71.4512 157.164 71.5598 157.848 71.8188 158.414C72.0897 158.981 72.4637 159.415 72.9407 159.716C73.4184 160.006 73.9508 160.165 74.538 160.196ZM83.7382 153.681C84.0551 153.132 84.4852 152.716 85.0287 152.432C85.5842 152.148 86.2454 152.026 87.0124 152.066L86.9246 153.756L86.4931 153.734C84.6596 153.638 83.6912 154.585 83.5878 156.575L83.3094 161.931L81.6736 161.846L82.1855 151.996L83.8213 152.081L83.7382 153.681ZM93.7002 152.414C94.8986 152.476 95.8503 152.892 96.5553 153.662C97.2609 154.419 97.5782 155.481 97.5072 156.847L97.2055 162.654L95.5877 162.57L95.8773 156.997C95.9283 156.014 95.7216 155.253 95.257 154.712C94.7931 154.159 94.1357 153.86 93.2849 153.816C92.422 153.771 91.7189 154.005 91.1756 154.518C90.6443 155.031 90.3518 155.803 90.2983 156.833L90.0152 162.28L88.3794 162.195L88.8913 152.344L90.5271 152.429L90.4543 153.831C90.804 153.345 91.2616 152.978 91.8272 152.731C92.4048 152.485 93.0291 152.379 93.7002 152.414ZM99.5242 157.799C99.5765 156.793 99.826 155.923 100.273 155.189C100.72 154.443 101.308 153.879 102.037 153.496C102.778 153.114 103.586 152.946 104.46 152.991C105.323 153.036 106.063 153.261 106.678 153.665C107.294 154.07 107.743 154.562 108.026 155.141L108.119 153.343L109.773 153.429L109.261 163.28L107.607 163.194L107.702 161.361C107.349 161.919 106.839 162.373 106.172 162.723C105.517 163.061 104.765 163.209 103.914 163.164C103.039 163.119 102.259 162.862 101.575 162.394C100.89 161.926 100.364 161.292 99.9972 160.492C99.6302 159.691 99.4725 158.794 99.5242 157.799ZM107.864 158.251C107.903 157.508 107.786 156.853 107.516 156.286C107.245 155.719 106.859 155.279 106.359 154.964C105.871 154.638 105.321 154.46 104.71 154.428C104.099 154.396 103.534 154.511 103.016 154.772C102.498 155.034 102.074 155.433 101.746 155.968C101.418 156.504 101.235 157.143 101.196 157.886C101.157 158.641 101.272 159.308 101.543 159.887C101.814 160.454 102.193 160.9 102.681 161.226C103.169 161.54 103.719 161.712 104.33 161.744C104.941 161.776 105.506 161.661 106.024 161.4C106.555 161.127 106.985 160.722 107.313 160.187C107.642 159.639 107.825 158.994 107.864 158.251ZM111.672 158.431C111.724 157.424 111.974 156.554 112.42 155.82C112.868 155.074 113.456 154.51 114.185 154.127C114.925 153.745 115.739 153.577 116.626 153.623C117.393 153.663 118.097 153.88 118.737 154.274C119.378 154.655 119.858 155.143 120.175 155.736L120.446 150.523L122.1 150.609L121.409 163.911L119.755 163.825L119.851 161.974C119.497 162.544 118.992 163.005 118.337 163.355C117.683 163.694 116.93 163.841 116.079 163.797C115.205 163.751 114.419 163.494 113.722 163.025C113.038 162.557 112.512 161.923 112.145 161.123C111.778 160.323 111.62 159.425 111.672 158.431ZM120.012 158.882C120.05 158.139 119.934 157.484 119.663 156.917C119.392 156.35 119.007 155.91 118.506 155.595C118.018 155.27 117.469 155.091 116.858 155.059C116.247 155.027 115.682 155.142 115.164 155.404C114.645 155.665 114.222 156.064 113.894 156.599C113.566 157.135 113.382 157.775 113.344 158.518C113.304 159.272 113.42 159.939 113.69 160.518C113.961 161.085 114.341 161.531 114.828 161.857C115.317 162.171 115.866 162.344 116.478 162.375C117.089 162.407 117.654 162.292 118.172 162.031C118.703 161.758 119.132 161.354 119.46 160.818C119.789 160.27 119.973 159.625 120.012 158.882ZM123.82 159.062C123.872 158.055 124.121 157.185 124.568 156.451C125.015 155.705 125.603 155.141 126.332 154.758C127.073 154.376 127.881 154.208 128.756 154.254C129.619 154.298 130.358 154.523 130.974 154.928C131.59 155.332 132.039 155.824 132.321 156.403L132.414 154.606L134.068 154.692L133.556 164.543L131.902 164.457L131.998 162.623C131.644 163.182 131.134 163.636 130.467 163.986C129.813 164.324 129.06 164.471 128.209 164.427C127.334 164.381 126.555 164.125 125.87 163.656C125.185 163.188 124.659 162.554 124.292 161.754C123.926 160.954 123.768 160.057 123.82 159.062ZM132.159 159.513C132.198 158.77 132.082 158.115 131.811 157.549C131.54 156.982 131.154 156.541 130.654 156.227C130.166 155.901 129.617 155.722 129.006 155.69C128.394 155.659 127.83 155.774 127.311 156.035C126.793 156.296 126.37 156.695 126.042 157.231C125.713 157.766 125.53 158.406 125.491 159.149C125.452 159.904 125.568 160.571 125.838 161.149C126.109 161.716 126.488 162.163 126.976 162.488C127.464 162.802 128.014 162.975 128.625 163.007C129.237 163.038 129.801 162.924 130.319 162.662C130.85 162.389 131.28 161.985 131.608 161.449C131.937 160.902 132.121 160.256 132.159 159.513Z" fill="#393939"/>
<path id="Elabore kits de discuss&#195;&#163;o" d="M270.465 63.1225L270.247 67.3109L274.813 67.5481L274.743 68.8963L270.177 68.6591L269.953 72.9732L275.058 73.2385L274.988 74.5867L268.247 74.2364L268.899 61.6893L275.64 62.0396L275.57 63.3878L270.465 63.1225ZM279.79 61.4983L279.099 74.8003L277.463 74.7153L278.155 61.4133L279.79 61.4983ZM281.534 69.9521C281.586 68.9455 281.835 68.0753 282.282 67.3415C282.729 66.5957 283.318 66.0314 284.046 65.6487C284.787 65.2667 285.595 65.0984 286.47 65.1438C287.333 65.1887 288.072 65.4133 288.688 65.8178C289.304 66.2224 289.753 66.7143 290.035 67.2938L290.128 65.4962L291.782 65.5821L291.27 75.4328L289.617 75.3469L289.712 73.5134C289.358 74.0718 288.848 74.5259 288.181 74.8758C287.527 75.2142 286.774 75.3614 285.923 75.3172C285.048 75.2717 284.269 75.0149 283.584 74.5467C282.899 74.0786 282.374 73.4444 282.007 72.6443C281.64 71.8442 281.482 70.9468 281.534 69.9521ZM289.873 70.4036C289.912 69.6606 289.796 69.0056 289.525 68.4388C289.254 67.872 288.868 67.4314 288.368 67.117C287.88 66.7912 287.331 66.6125 286.72 66.5807C286.108 66.549 285.544 66.6638 285.025 66.9253C284.507 67.1867 284.084 67.5853 283.756 68.121C283.427 68.6567 283.244 69.296 283.205 70.039C283.166 70.794 283.282 71.4609 283.552 72.0397C283.823 72.6065 284.202 73.0528 284.69 73.3786C285.178 73.6923 285.728 73.8651 286.339 73.8969C286.951 73.9286 287.515 73.8138 288.034 73.5523C288.564 73.2795 288.994 72.8752 289.322 72.3396C289.651 71.7919 289.835 71.1466 289.873 70.4036ZM296.087 67.6443C296.453 67.0745 296.969 66.6207 297.636 66.2828C298.302 65.945 299.049 65.7975 299.876 65.8405C300.763 65.8866 301.549 66.1377 302.234 66.5939C302.919 67.05 303.446 67.6722 303.813 68.4603C304.181 69.2365 304.339 70.1279 304.287 71.1345C304.235 72.1292 303.986 73.0054 303.538 73.7632C303.09 74.521 302.495 75.0969 301.754 75.4909C301.024 75.8856 300.222 76.0602 299.347 76.0148C298.496 75.9705 297.757 75.7459 297.129 75.3407C296.513 74.9362 296.058 74.438 295.765 73.8459L295.67 75.6615L294.035 75.5765L294.726 62.2744L296.362 62.3594L296.087 67.6443ZM302.615 71.0477C302.654 70.3047 302.538 69.6498 302.267 69.0829C301.996 68.5161 301.61 68.0755 301.11 67.7611C300.621 67.4473 300.072 67.2746 299.46 67.2428C298.861 67.2117 298.296 67.3325 297.765 67.6053C297.247 67.8668 296.818 68.271 296.477 68.8181C296.148 69.3538 295.965 69.9871 295.927 70.7181C295.889 71.4611 296.005 72.1221 296.275 72.7009C296.558 73.2683 296.943 73.7149 297.431 74.0407C297.931 74.355 298.481 74.5278 299.08 74.5589C299.691 74.5907 300.256 74.4759 300.774 74.2144C301.305 73.9416 301.735 73.5373 302.063 73.0016C302.392 72.454 302.576 71.8026 302.615 71.0477ZM310.47 76.5928C309.547 76.5448 308.719 76.2915 307.986 75.8328C307.265 75.3748 306.709 74.7511 306.317 73.9617C305.938 73.161 305.775 72.2513 305.828 71.2326C305.88 70.226 306.142 69.3504 306.613 68.6059C307.097 67.85 307.727 67.2879 308.503 66.9197C309.28 66.5395 310.136 66.3737 311.071 66.4222C312.006 66.4708 312.839 66.7244 313.573 67.1831C314.306 67.6298 314.869 68.2478 315.261 69.0372C315.664 69.8272 315.84 70.7315 315.787 71.7501C315.734 72.7688 315.459 73.6557 314.963 74.411C314.48 75.1549 313.844 75.7167 313.055 76.0963C312.267 76.4758 311.405 76.6413 310.47 76.5928ZM310.545 75.1547C311.132 75.1852 311.691 75.0761 312.22 74.8272C312.75 74.5784 313.185 74.1864 313.525 73.6513C313.877 73.1169 314.074 72.4542 314.115 71.6633C314.156 70.8723 314.035 70.1932 313.752 69.6257C313.469 69.0583 313.083 68.6296 312.593 68.3398C312.104 68.0381 311.566 67.8719 310.979 67.8414C310.38 67.8103 309.821 67.9194 309.304 68.1689C308.799 68.407 308.382 68.7939 308.054 69.3296C307.726 69.8653 307.541 70.5286 307.5 71.3195C307.458 72.1224 307.567 72.807 307.826 73.3732C308.097 73.94 308.471 74.374 308.948 74.6752C309.425 74.9644 309.958 75.1242 310.545 75.1547ZM319.745 68.6394C320.062 68.0911 320.492 67.6749 321.036 67.3907C321.591 67.1071 322.252 66.9853 323.019 67.0251L322.931 68.7148L322.5 68.6924C320.667 68.5971 319.698 69.5442 319.595 71.5335L319.316 76.8903L317.681 76.8052L318.192 66.9545L319.828 67.0395L319.745 68.6394ZM333.65 72.3179C333.634 72.6295 333.598 72.9581 333.544 73.3038L325.671 72.8947C325.681 73.8685 325.971 74.6466 326.541 75.2289C327.124 75.8 327.847 76.1079 328.71 76.1528C329.417 76.1895 330.013 76.0582 330.497 75.759C330.994 75.4483 331.352 75.0224 331.573 74.4811L333.334 74.5726C333.021 75.5056 332.454 76.2512 331.632 76.8093C330.811 77.3554 329.813 77.5979 328.638 77.5369C327.703 77.4883 326.875 77.235 326.154 76.777C325.445 76.3195 324.901 75.6964 324.521 74.9077C324.142 74.1069 323.979 73.1973 324.032 72.1786C324.085 71.16 324.335 70.2778 324.782 69.532C325.23 68.7862 325.829 68.2286 326.582 67.8591C327.346 67.4783 328.208 67.3128 329.167 67.3626C330.102 67.4112 330.918 67.6579 331.616 68.1027C332.314 68.5475 332.836 69.1394 333.182 69.8784C333.54 70.606 333.696 71.4191 333.65 72.3179ZM331.978 71.8886C332.01 71.2654 331.9 70.725 331.647 70.2673C331.396 69.7976 331.036 69.4364 330.568 69.1838C330.113 68.9198 329.598 68.7729 329.023 68.743C328.196 68.7 327.475 68.9269 326.861 69.4237C326.258 69.9211 325.891 70.635 325.758 71.5654L331.978 71.8886ZM345.826 78.2679L342.188 73.7169L341.962 78.067L340.326 77.982L341.017 64.68L342.653 64.765L342.246 72.5844L346.266 68.4134L348.549 68.532L343.656 73.1984L348.055 78.3837L345.826 78.2679ZM351.017 67.0561C350.705 67.0399 350.447 66.9184 350.243 66.6915C350.038 66.4645 349.944 66.1953 349.96 65.8837C349.976 65.5721 350.098 65.3141 350.325 65.1096C350.552 64.9051 350.821 64.8109 351.133 64.8271C351.432 64.8427 351.678 64.9636 351.871 65.1899C352.075 65.4168 352.169 65.6861 352.153 65.9977C352.137 66.3092 352.016 66.5673 351.789 66.7718C351.574 66.9769 351.316 67.0717 351.017 67.0561ZM351.725 68.6971L351.213 78.5478L349.577 78.4628L350.089 68.6121L351.725 68.6971ZM356.438 70.2938L356.136 76.1C356.111 76.5793 356.195 76.9262 356.388 77.1405C356.582 77.3428 356.931 77.457 357.434 77.4832L358.638 77.5458L358.566 78.9299L357.092 78.8533C356.182 78.806 355.51 78.5608 355.076 78.1177C354.642 77.6746 354.45 76.9737 354.5 76.015L354.802 70.2088L353.526 70.1425L353.596 68.7943L354.872 68.8606L355.001 66.38L356.637 66.465L356.508 68.9456L359.078 69.0792L359.008 70.4274L356.438 70.2938ZM364.027 79.3759C363.272 79.3367 362.602 79.1757 362.016 78.8929C361.43 78.5981 360.976 78.214 360.652 77.7405C360.328 77.2551 360.164 76.7118 360.16 76.1108L361.849 76.1986C361.872 76.6924 362.079 77.1057 362.47 77.4385C362.873 77.7718 363.41 77.956 364.081 77.9908C364.704 78.0232 365.203 77.9109 365.577 77.654C365.951 77.3971 366.148 77.0589 366.17 76.6394C366.193 76.208 366.017 75.8805 365.645 75.6568C365.272 75.4212 364.69 75.1806 363.898 74.9352C363.177 74.7055 362.587 74.4826 362.13 74.2666C361.685 74.0392 361.305 73.725 360.989 73.3241C360.686 72.9118 360.551 72.3881 360.584 71.753C360.61 71.2496 360.784 70.796 361.106 70.3922C361.427 69.9883 361.87 69.6809 362.433 69.4698C362.998 69.2468 363.633 69.1537 364.34 69.1904C365.431 69.2471 366.297 69.5685 366.94 70.1546C367.582 70.7408 367.903 71.5144 367.901 72.4756L366.265 72.3906C366.256 71.8734 366.067 71.4491 365.7 71.1176C365.345 70.7867 364.85 70.6048 364.214 70.5718C363.627 70.5412 363.153 70.6428 362.793 70.8764C362.432 71.11 362.241 71.4305 362.22 71.838C362.203 72.1615 362.291 72.4365 362.484 72.6628C362.689 72.8777 362.944 73.0592 363.248 73.2072C363.566 73.3438 364.002 73.5047 364.557 73.6897C365.254 73.9182 365.819 74.1399 366.253 74.3546C366.687 74.5574 367.05 74.8527 367.342 75.2404C367.647 75.6287 367.789 76.1228 367.77 76.7226C367.742 77.2618 367.567 77.7394 367.245 78.1552C366.923 78.5711 366.48 78.8905 365.916 79.1135C365.364 79.3252 364.734 79.4127 364.027 79.3759ZM306.055 91.2534C306.107 90.2468 306.357 89.3765 306.803 88.6427C307.251 87.8969 307.839 87.3327 308.568 86.95C309.309 86.5679 310.122 86.3999 311.009 86.446C311.776 86.4859 312.48 86.7027 313.12 87.0965C313.761 87.4782 314.241 87.9658 314.558 88.5591L314.829 83.3461L316.483 83.432L315.792 96.7341L314.138 96.6481L314.234 94.7966C313.88 95.367 313.375 95.8275 312.72 96.1779C312.066 96.5164 311.313 96.6636 310.462 96.6194C309.588 96.5739 308.802 96.3168 308.105 95.848C307.421 95.3798 306.895 94.7457 306.528 93.9456C306.161 93.1454 306.003 92.2481 306.055 91.2534ZM314.395 91.7048C314.433 90.9618 314.317 90.3069 314.046 89.7401C313.775 89.1733 313.39 88.7326 312.889 88.4183C312.402 88.0925 311.852 87.9137 311.241 87.882C310.63 87.8502 310.065 87.9651 309.547 88.2265C309.029 88.488 308.605 88.8866 308.277 89.4222C307.949 89.9579 307.765 90.5973 307.727 91.3403C307.688 92.0953 307.803 92.7622 308.073 93.341C308.344 93.9078 308.724 94.3541 309.211 94.6798C309.7 94.9936 310.25 95.1664 310.861 95.1981C311.472 95.2299 312.037 95.115 312.555 94.8536C313.086 94.5808 313.515 94.1765 313.844 93.6408C314.172 93.0931 314.356 92.4478 314.395 91.7048ZM327.819 92.0419C327.803 92.3535 327.768 92.6821 327.714 93.0278L319.841 92.6187C319.85 93.5925 320.14 94.3706 320.711 94.953C321.294 95.524 322.017 95.8319 322.88 95.8768C323.587 95.9135 324.182 95.7822 324.667 95.483C325.163 95.1723 325.522 94.7464 325.742 94.2051L327.504 94.2966C327.191 95.2296 326.624 95.9752 325.802 96.5333C324.98 97.0794 323.982 97.3219 322.808 97.2609C321.873 97.2123 321.045 96.959 320.324 96.501C319.615 96.0435 319.07 95.4205 318.691 94.6317C318.312 93.831 318.149 92.9213 318.202 91.9026C318.255 90.884 318.505 90.0018 318.952 89.256C319.399 88.5102 319.999 87.9526 320.751 87.5831C321.516 87.2023 322.378 87.0368 323.337 87.0866C324.271 87.1352 325.088 87.3819 325.785 87.8267C326.483 88.2715 327.005 88.8634 327.351 89.6024C327.71 90.33 327.866 91.1432 327.819 92.0419ZM326.148 91.6126C326.18 90.9894 326.07 90.449 325.817 89.9913C325.565 89.5216 325.205 89.1604 324.738 88.9078C324.283 88.6438 323.768 88.4969 323.193 88.467C322.366 88.4241 321.645 88.651 321.031 89.1477C320.428 89.6451 320.06 90.359 319.928 91.2894L326.148 91.6126ZM271.26 109.472C271.312 108.466 271.562 107.595 272.008 106.862C272.456 106.116 273.044 105.552 273.773 105.169C274.513 104.787 275.327 104.619 276.214 104.665C276.981 104.705 277.685 104.922 278.325 105.315C278.966 105.697 279.446 106.185 279.763 106.778L280.034 101.565L281.688 101.651L280.997 114.953L279.343 114.867L279.439 113.015C279.085 113.586 278.58 114.046 277.925 114.397C277.271 114.735 276.518 114.882 275.667 114.838C274.793 114.793 274.007 114.536 273.31 114.067C272.626 113.599 272.1 112.965 271.733 112.164C271.366 111.364 271.208 110.467 271.26 109.472ZM279.6 109.924C279.638 109.181 279.522 108.526 279.251 107.959C278.98 107.392 278.595 106.951 278.094 106.637C277.606 106.311 277.057 106.133 276.446 106.101C275.835 106.069 275.27 106.184 274.752 106.445C274.233 106.707 273.81 107.105 273.482 107.641C273.154 108.177 272.97 108.816 272.932 109.559C272.892 110.314 273.008 110.981 273.278 111.56C273.549 112.127 273.929 112.573 274.416 112.899C274.905 113.212 275.454 113.385 276.066 113.417C276.677 113.449 277.242 113.334 277.76 113.072C278.291 112.8 278.72 112.395 279.049 111.86C279.377 111.312 279.561 110.667 279.6 109.924ZM285.201 103.69C284.889 103.674 284.631 103.552 284.427 103.325C284.222 103.098 284.128 102.829 284.144 102.518C284.16 102.206 284.282 101.948 284.509 101.743C284.736 101.539 285.005 101.445 285.317 101.461C285.616 101.476 285.862 101.597 286.055 101.824C286.259 102.051 286.353 102.32 286.337 102.631C286.321 102.943 286.2 103.201 285.973 103.406C285.758 103.611 285.5 103.705 285.201 103.69ZM285.909 105.331L285.397 115.182L283.761 115.097L284.273 105.246L285.909 105.331ZM291.664 115.669C290.909 115.63 290.238 115.469 289.652 115.186C289.066 114.892 288.612 114.508 288.288 114.034C287.965 113.549 287.801 113.005 287.796 112.404L289.485 112.492C289.508 112.986 289.715 113.399 290.106 113.732C290.509 114.065 291.046 114.25 291.717 114.284C292.341 114.317 292.839 114.204 293.213 113.948C293.587 113.691 293.785 113.352 293.806 112.933C293.829 112.502 293.654 112.174 293.281 111.95C292.908 111.715 292.326 111.474 291.534 111.229C290.813 110.999 290.224 110.776 289.766 110.56C289.321 110.333 288.941 110.019 288.626 109.618C288.322 109.205 288.187 108.682 288.22 108.046C288.247 107.543 288.42 107.09 288.742 106.686C289.063 106.282 289.506 105.974 290.069 105.763C290.634 105.54 291.269 105.447 291.977 105.484C293.067 105.541 293.934 105.862 294.576 106.448C295.218 107.034 295.539 107.808 295.537 108.769L293.901 108.684C293.892 108.167 293.704 107.743 293.336 107.411C292.981 107.08 292.486 106.898 291.851 106.865C291.263 106.835 290.79 106.936 290.429 107.17C290.068 107.404 289.877 107.724 289.856 108.132C289.839 108.455 289.927 108.73 290.12 108.956C290.325 109.171 290.58 109.353 290.885 109.501C291.202 109.637 291.638 109.798 292.193 109.983C292.89 110.212 293.456 110.433 293.889 110.648C294.323 110.851 294.686 111.146 294.979 111.534C295.283 111.922 295.425 112.416 295.406 113.016C295.378 113.555 295.203 114.033 294.881 114.449C294.559 114.865 294.116 115.184 293.552 115.407C293 115.619 292.371 115.706 291.664 115.669ZM297.222 110.839C297.275 109.821 297.525 108.945 297.971 108.211C298.419 107.465 299.013 106.901 299.754 106.519C300.506 106.138 301.35 105.971 302.285 106.02C303.495 106.083 304.475 106.428 305.223 107.056C305.984 107.684 306.463 108.526 306.66 109.581L304.898 109.49C304.762 108.882 304.457 108.392 303.983 108.018C303.522 107.646 302.932 107.441 302.213 107.404C301.278 107.355 300.506 107.64 299.898 108.257C299.289 108.862 298.955 109.752 298.894 110.926C298.832 112.113 299.072 113.044 299.614 113.721C300.155 114.398 300.893 114.761 301.828 114.81C302.547 114.847 303.155 114.711 303.652 114.4C304.149 114.089 304.503 113.627 304.715 113.013L306.477 113.105C306.161 114.098 305.592 114.879 304.769 115.449C303.947 116.007 302.943 116.256 301.756 116.194C300.821 116.145 300 115.892 299.29 115.435C298.593 114.978 298.061 114.356 297.693 113.568C297.325 112.779 297.168 111.87 297.222 110.839ZM317.743 106.985L317.231 116.836L315.596 116.751L315.671 115.295C315.333 115.782 314.876 116.155 314.297 116.413C313.732 116.66 313.113 116.766 312.442 116.731C311.675 116.691 310.994 116.5 310.399 116.156C309.805 115.801 309.345 115.297 309.018 114.643C308.704 113.989 308.57 113.208 308.617 112.297L308.917 106.527L310.535 106.611L310.246 112.165C310.196 113.136 310.403 113.898 310.867 114.45C311.331 114.991 311.989 115.284 312.84 115.328C313.715 115.373 314.418 115.14 314.949 114.626C315.48 114.113 315.773 113.341 315.826 112.311L316.107 106.9L317.743 106.985ZM323.472 117.322C322.717 117.283 322.047 117.122 321.461 116.839C320.875 116.545 320.42 116.16 320.097 115.687C319.773 115.202 319.609 114.658 319.604 114.057L321.294 114.145C321.317 114.639 321.523 115.052 321.915 115.385C322.318 115.718 322.855 115.902 323.526 115.937C324.149 115.97 324.648 115.857 325.022 115.6C325.395 115.344 325.593 115.005 325.615 114.586C325.638 114.155 325.462 113.827 325.089 113.603C324.717 113.368 324.135 113.127 323.342 112.882C322.621 112.652 322.032 112.429 321.575 112.213C321.13 111.986 320.75 111.672 320.434 111.271C320.131 110.858 319.996 110.335 320.029 109.699C320.055 109.196 320.229 108.743 320.55 108.339C320.872 107.935 321.314 107.627 321.878 107.416C322.442 107.193 323.078 107.1 323.785 107.137C324.876 107.194 325.742 107.515 326.385 108.101C327.027 108.687 327.347 109.461 327.345 110.422L325.71 110.337C325.701 109.82 325.512 109.396 325.145 109.064C324.79 108.733 324.294 108.551 323.659 108.518C323.072 108.488 322.598 108.589 322.238 108.823C321.877 109.056 321.686 109.377 321.665 109.784C321.648 110.108 321.736 110.383 321.928 110.609C322.134 110.824 322.389 111.006 322.693 111.154C323.011 111.29 323.447 111.451 324.002 111.636C324.699 111.865 325.264 112.086 325.698 112.301C326.132 112.504 326.495 112.799 326.787 113.187C327.092 113.575 327.234 114.069 327.215 114.669C327.187 115.208 327.012 115.686 326.69 116.102C326.368 116.518 325.925 116.837 325.36 117.06C324.809 117.272 324.179 117.359 323.472 117.322ZM332.864 117.81C332.109 117.771 331.438 117.61 330.852 117.327C330.267 117.033 329.812 116.649 329.488 116.175C329.165 115.69 329.001 115.146 328.996 114.545L330.686 114.633C330.708 115.127 330.915 115.54 331.306 115.873C331.709 116.206 332.247 116.391 332.918 116.425C333.541 116.458 334.039 116.345 334.413 116.089C334.787 115.832 334.985 115.493 335.007 115.074C335.029 114.643 334.854 114.315 334.481 114.091C334.109 113.856 333.526 113.615 332.734 113.37C332.013 113.14 331.424 112.917 330.966 112.701C330.522 112.474 330.141 112.16 329.826 111.759C329.523 111.346 329.388 110.823 329.421 110.187C329.447 109.684 329.621 109.231 329.942 108.827C330.263 108.423 330.706 108.115 331.27 107.904C331.834 107.681 332.47 107.588 333.177 107.625C334.267 107.682 335.134 108.003 335.776 108.589C336.419 109.175 336.739 109.949 336.737 110.91L335.101 110.825C335.092 110.308 334.904 109.884 334.537 109.552C334.181 109.221 333.686 109.039 333.051 109.006C332.464 108.976 331.99 109.077 331.629 109.311C331.269 109.545 331.078 109.865 331.057 110.273C331.04 110.596 331.128 110.871 331.32 111.097C331.525 111.312 331.78 111.494 332.085 111.642C332.402 111.778 332.838 111.939 333.394 112.124C334.091 112.353 334.656 112.574 335.089 112.789C335.523 112.992 335.887 113.287 336.179 113.675C336.483 114.063 336.626 114.557 336.607 115.157C336.579 115.696 336.404 116.174 336.081 116.59C335.759 117.006 335.316 117.325 334.752 117.548C334.2 117.76 333.571 117.847 332.864 117.81ZM338.423 112.962C338.475 111.956 338.725 111.086 339.172 110.352C339.619 109.606 340.207 109.042 340.936 108.659C341.677 108.277 342.485 108.109 343.359 108.154C344.222 108.199 344.962 108.424 345.577 108.828C346.193 109.233 346.642 109.725 346.925 110.304L347.018 108.506L348.672 108.592L348.16 118.443L346.506 118.357L346.601 116.524C346.248 117.082 345.738 117.536 345.071 117.886C344.416 118.225 343.664 118.372 342.813 118.327C341.938 118.282 341.158 118.025 340.474 117.557C339.789 117.089 339.263 116.455 338.896 115.655C338.529 114.854 338.372 113.957 338.423 112.962ZM346.763 113.414C346.802 112.671 346.685 112.016 346.414 111.449C346.144 110.882 345.758 110.442 345.258 110.127C344.77 109.802 344.22 109.623 343.609 109.591C342.998 109.559 342.433 109.674 341.915 109.936C341.397 110.197 340.973 110.596 340.645 111.131C340.317 111.667 340.134 112.306 340.095 113.049C340.056 113.804 340.171 114.471 340.442 115.05C340.713 115.617 341.092 116.063 341.58 116.389C342.068 116.703 342.618 116.875 343.229 116.907C343.84 116.939 344.405 116.824 344.923 116.563C345.454 116.29 345.884 115.886 346.212 115.35C346.541 114.802 346.724 114.157 346.763 113.414ZM341.411 107.152C341.526 106.545 341.748 106.088 342.077 105.78C342.417 105.474 342.827 105.333 343.306 105.358C343.534 105.369 343.724 105.421 343.875 105.513C344.039 105.594 344.231 105.712 344.451 105.868C344.613 105.996 344.758 106.1 344.886 106.179C345.015 106.245 345.157 106.283 345.313 106.291C345.516 106.302 345.694 106.245 345.844 106.12C345.995 105.996 346.095 105.809 346.144 105.559L347.079 105.608C346.975 106.203 346.754 106.654 346.413 106.961C346.073 107.268 345.663 107.409 345.184 107.384C344.956 107.372 344.754 107.325 344.578 107.244C344.415 107.152 344.229 107.022 344.022 106.855C343.836 106.725 343.685 106.627 343.568 106.561C343.464 106.495 343.333 106.458 343.178 106.45C342.974 106.44 342.797 106.497 342.646 106.621C342.507 106.746 342.413 106.939 342.363 107.201L341.411 107.152ZM355.212 118.972C354.289 118.924 353.461 118.671 352.728 118.212C352.007 117.754 351.451 117.13 351.059 116.341C350.68 115.54 350.517 114.63 350.57 113.612C350.622 112.605 350.884 111.729 351.355 110.985C351.839 110.229 352.469 109.667 353.245 109.299C354.022 108.918 354.878 108.753 355.813 108.801C356.747 108.85 357.581 109.103 358.315 109.562C359.048 110.009 359.611 110.627 360.003 111.416C360.406 112.206 360.581 113.111 360.528 114.129C360.476 115.148 360.201 116.035 359.705 116.79C359.222 117.534 358.586 118.096 357.797 118.475C357.009 118.855 356.147 119.02 355.212 118.972ZM355.287 117.534C355.874 117.564 356.432 117.455 356.962 117.206C357.492 116.957 357.927 116.565 358.267 116.03C358.619 115.496 358.816 114.833 358.857 114.042C358.898 113.251 358.777 112.572 358.494 112.005C358.211 111.437 357.825 111.009 357.335 110.719C356.846 110.417 356.308 110.251 355.721 110.22C355.122 110.189 354.563 110.298 354.046 110.548C353.541 110.786 353.124 111.173 352.796 111.709C352.467 112.244 352.283 112.908 352.242 113.699C352.2 114.501 352.309 115.186 352.568 115.752C352.838 116.319 353.212 116.753 353.689 117.054C354.167 117.343 354.7 117.503 355.287 117.534Z" fill="#393939"/>
<path id="Acompanhe os engajamentos" d="M210.033 276.042L204.619 275.246L203.216 277.86L201.506 277.609L207.807 265.927L209.677 266.202L212.334 279.2L210.624 278.949L210.033 276.042ZM209.763 274.656L208.44 268.058L205.275 273.997L209.763 274.656ZM214.404 274.501C214.552 273.492 214.883 272.643 215.397 271.954C215.912 271.253 216.556 270.748 217.33 270.437C218.115 270.128 218.97 270.041 219.897 270.177C221.096 270.353 222.038 270.789 222.725 271.484C223.423 272.181 223.821 273.064 223.918 274.134L222.173 273.877C222.094 273.259 221.836 272.742 221.4 272.326C220.976 271.912 220.407 271.653 219.695 271.548C218.769 271.412 217.974 271.623 217.31 272.18C216.648 272.726 216.231 273.58 216.06 274.744C215.887 275.919 216.039 276.869 216.515 277.594C216.99 278.319 217.691 278.75 218.617 278.886C219.33 278.99 219.948 278.911 220.471 278.649C220.995 278.386 221.391 277.959 221.66 277.368L223.405 277.624C222.998 278.583 222.358 279.308 221.485 279.798C220.614 280.277 219.591 280.43 218.416 280.257C217.49 280.121 216.695 279.792 216.032 279.27C215.381 278.75 214.909 278.08 214.617 277.261C214.325 276.442 214.254 275.522 214.404 274.501ZM229.34 281.862C228.426 281.727 227.625 281.397 226.939 280.872C226.264 280.348 225.768 279.675 225.452 278.853C225.15 278.02 225.073 277.099 225.221 276.09C225.368 275.092 225.711 274.245 226.25 273.548C226.802 272.841 227.482 272.34 228.29 272.047C229.099 271.741 229.966 271.656 230.892 271.792C231.818 271.928 232.625 272.259 233.312 272.784C234 273.298 234.503 273.966 234.818 274.789C235.146 275.613 235.236 276.53 235.087 277.539C234.939 278.548 234.583 279.405 234.018 280.111C233.467 280.806 232.782 281.306 231.961 281.61C231.14 281.914 230.266 281.998 229.34 281.862ZM229.55 280.437C230.131 280.522 230.697 280.466 231.248 280.268C231.799 280.07 232.269 279.72 232.657 279.22C233.058 278.721 233.316 278.079 233.431 277.296C233.546 276.512 233.49 275.825 233.261 275.233C233.033 274.642 232.688 274.179 232.228 273.844C231.77 273.498 231.249 273.282 230.668 273.196C230.074 273.109 229.508 273.166 228.969 273.365C228.444 273.555 227.993 273.901 227.616 274.404C227.239 274.906 226.993 275.549 226.878 276.333C226.761 277.128 226.805 277.82 227.009 278.408C227.226 278.998 227.558 279.465 228.004 279.81C228.453 280.142 228.968 280.351 229.55 280.437ZM249.695 274.536C250.455 274.648 251.108 274.907 251.654 275.315C252.203 275.711 252.603 276.249 252.854 276.929C253.106 277.608 253.166 278.399 253.033 279.302L252.189 285.054L250.586 284.819L251.397 279.298C251.54 278.324 251.405 277.546 250.994 276.964C250.595 276.372 249.987 276.016 249.167 275.896C248.324 275.772 247.614 275.946 247.035 276.419C246.458 276.88 246.094 277.621 245.944 278.642L245.154 284.021L243.551 283.785L244.362 278.265C244.505 277.291 244.371 276.513 243.959 275.931C243.561 275.339 242.952 274.983 242.133 274.862C241.29 274.739 240.579 274.913 240 275.386C239.423 275.847 239.06 276.588 238.91 277.609L238.12 282.987L236.499 282.749L237.932 272.99L239.553 273.228L239.346 274.635C239.742 274.172 240.227 273.843 240.801 273.648C241.388 273.455 242.007 273.407 242.66 273.503C243.479 273.623 244.177 273.913 244.752 274.374C245.327 274.834 245.717 275.443 245.921 276.201C246.295 275.553 246.824 275.085 247.51 274.797C248.195 274.51 248.923 274.423 249.695 274.536ZM257.637 277.722C258.039 277.211 258.582 276.818 259.266 276.542C259.963 276.256 260.733 276.175 261.575 276.299C262.442 276.427 263.195 276.749 263.835 277.268C264.486 277.788 264.958 278.458 265.25 279.277C265.544 280.084 265.617 280.986 265.471 281.984C265.326 282.969 264.995 283.818 264.478 284.531C263.961 285.243 263.315 285.761 262.54 286.083C261.777 286.408 260.962 286.506 260.095 286.379C259.264 286.257 258.555 285.965 257.968 285.503C257.394 285.03 256.982 284.491 256.732 283.884L255.787 290.313L254.167 290.075L256.28 275.685L257.901 275.923L257.637 277.722ZM263.814 281.74C263.923 281.004 263.868 280.341 263.652 279.752C263.435 279.162 263.093 278.687 262.624 278.327C262.167 277.969 261.636 277.745 261.03 277.656C260.437 277.569 259.863 277.637 259.309 277.858C258.768 278.07 258.303 278.432 257.912 278.945C257.535 279.448 257.293 280.061 257.187 280.785C257.079 281.521 257.132 282.19 257.347 282.792C257.575 283.383 257.917 283.864 258.372 284.234C258.841 284.594 259.372 284.818 259.966 284.905C260.571 284.994 261.144 284.932 261.685 284.721C262.239 284.499 262.704 284.137 263.081 283.634C263.46 283.12 263.705 282.488 263.814 281.74ZM266.998 282.208C267.145 281.211 267.475 280.368 267.988 279.679C268.504 278.979 269.142 278.472 269.904 278.159C270.677 277.848 271.497 277.757 272.364 277.884C273.219 278.01 273.934 278.303 274.509 278.763C275.084 279.224 275.485 279.755 275.712 280.359L275.973 278.578L277.612 278.819L276.178 288.578L274.54 288.337L274.807 286.521C274.402 287.044 273.852 287.448 273.155 287.734C272.471 288.009 271.708 288.085 270.865 287.961C269.999 287.834 269.246 287.505 268.609 286.975C267.971 286.444 267.507 285.764 267.217 284.933C266.926 284.102 266.854 283.194 266.998 282.208ZM275.259 283.44C275.367 282.704 275.313 282.041 275.096 281.451C274.88 280.861 274.537 280.386 274.068 280.027C273.613 279.656 273.083 279.427 272.478 279.338C271.872 279.249 271.299 279.31 270.759 279.522C270.218 279.734 269.759 280.091 269.382 280.593C269.005 281.096 268.763 281.715 268.655 282.451C268.545 283.199 268.597 283.874 268.812 284.476C269.029 285.066 269.364 285.545 269.82 285.916C270.276 286.274 270.807 286.497 271.413 286.586C272.018 286.675 272.591 286.614 273.132 286.402C273.686 286.18 274.152 285.818 274.529 285.316C274.907 284.801 275.151 284.176 275.259 283.44ZM285.131 279.741C286.319 279.916 287.227 280.419 287.857 281.251C288.488 282.072 288.705 283.159 288.506 284.512L287.661 290.265L286.058 290.029L286.869 284.508C287.012 283.535 286.878 282.757 286.466 282.175C286.056 281.581 285.429 281.222 284.586 281.098C283.732 280.973 283.01 281.14 282.421 281.599C281.844 282.06 281.48 282.801 281.33 283.822L280.537 289.218L278.917 288.98L280.35 279.221L281.971 279.459L281.767 280.848C282.161 280.396 282.651 280.074 283.237 279.881C283.835 279.69 284.467 279.644 285.131 279.741ZM296.612 281.428C297.348 281.536 297.989 281.794 298.536 282.201C299.084 282.597 299.478 283.134 299.718 283.812C299.97 284.492 300.03 285.283 299.897 286.186L299.052 291.938L297.45 291.702L298.261 286.182C298.404 285.208 298.269 284.43 297.857 283.848C297.447 283.254 296.821 282.896 295.978 282.772C295.123 282.646 294.401 282.813 293.812 283.272C293.235 283.733 292.871 284.474 292.721 285.495L291.929 290.892L290.308 290.653L292.244 277.475L293.865 277.713L293.158 282.521C293.552 282.07 294.048 281.748 294.646 281.557C295.256 281.368 295.911 281.325 296.612 281.428ZM311.376 288.381C311.33 288.69 311.265 289.014 311.178 289.353L303.378 288.207C303.296 289.177 303.512 289.979 304.025 290.613C304.552 291.236 305.243 291.61 306.098 291.736C306.799 291.839 307.404 291.764 307.914 291.511C308.438 291.249 308.835 290.858 309.105 290.34L310.85 290.596C310.451 291.496 309.816 292.185 308.946 292.663C308.077 293.13 307.06 293.278 305.897 293.107C304.971 292.971 304.17 292.641 303.495 292.117C302.832 291.596 302.348 290.924 302.044 290.103C301.742 289.271 301.665 288.35 301.814 287.34C301.962 286.331 302.294 285.476 302.809 284.776C303.324 284.075 303.973 283.576 304.757 283.279C305.554 282.972 306.428 282.888 307.377 283.027C308.303 283.163 309.093 283.485 309.746 283.994C310.399 284.502 310.863 285.14 311.139 285.908C311.428 286.666 311.507 287.491 311.376 288.381ZM309.751 287.797C309.842 287.179 309.783 286.631 309.575 286.152C309.368 285.66 309.044 285.267 308.602 284.972C308.174 284.666 307.675 284.472 307.105 284.388C306.286 284.268 305.547 284.426 304.888 284.863C304.242 285.302 303.809 285.978 303.59 286.892L309.751 287.797ZM248.495 304.89C247.581 304.756 246.78 304.426 246.093 303.9C245.418 303.377 244.923 302.703 244.607 301.881C244.305 301.048 244.228 300.127 244.376 299.118C244.522 298.121 244.865 297.273 245.404 296.576C245.957 295.869 246.637 295.369 247.444 295.075C248.253 294.769 249.121 294.684 250.047 294.82C250.973 294.956 251.779 295.287 252.466 295.813C253.155 296.326 253.657 296.994 253.973 297.817C254.3 298.641 254.39 299.558 254.242 300.567C254.094 301.576 253.737 302.434 253.173 303.139C252.622 303.834 251.936 304.334 251.115 304.638C250.294 304.942 249.421 305.026 248.495 304.89ZM248.704 303.465C249.286 303.551 249.852 303.494 250.403 303.296C250.953 303.098 251.423 302.749 251.812 302.248C252.213 301.749 252.471 301.107 252.586 300.324C252.701 299.54 252.644 298.853 252.416 298.261C252.187 297.67 251.843 297.207 251.383 296.872C250.924 296.526 250.404 296.31 249.822 296.225C249.229 296.138 248.662 296.194 248.124 296.394C247.598 296.583 247.147 296.929 246.77 297.432C246.393 297.935 246.147 298.578 246.032 299.361C245.915 300.157 245.959 300.848 246.164 301.436C246.38 302.026 246.712 302.493 247.159 302.838C247.607 303.171 248.122 303.38 248.704 303.465ZM259.085 306.445C258.337 306.336 257.684 306.112 257.127 305.776C256.572 305.427 256.155 305.002 255.877 304.501C255.601 303.987 255.489 303.431 255.54 302.832L257.214 303.078C257.19 303.572 257.357 304.002 257.716 304.37C258.086 304.74 258.604 304.974 259.268 305.071C259.886 305.162 260.393 305.097 260.789 304.876C261.185 304.656 261.414 304.337 261.475 303.922C261.538 303.495 261.394 303.152 261.044 302.894C260.695 302.625 260.138 302.331 259.372 302.012C258.676 301.716 258.11 301.439 257.675 301.181C257.253 300.912 256.904 300.564 256.628 300.135C256.365 299.696 256.279 299.162 256.372 298.533C256.445 298.034 256.661 297.599 257.019 297.227C257.376 296.855 257.846 296.591 258.427 296.433C259.01 296.264 259.651 296.231 260.352 296.334C261.432 296.493 262.265 296.894 262.849 297.538C263.434 298.182 263.68 298.982 263.588 299.939L261.968 299.701C262.007 299.185 261.859 298.745 261.525 298.38C261.202 298.018 260.726 297.79 260.097 297.698C259.515 297.612 259.034 297.669 258.653 297.868C258.272 298.066 258.052 298.367 257.992 298.771C257.945 299.092 258.007 299.374 258.178 299.617C258.362 299.85 258.598 300.055 258.888 300.231C259.191 300.397 259.61 300.598 260.146 300.834C260.818 301.127 261.36 301.401 261.771 301.655C262.185 301.898 262.518 302.226 262.773 302.639C263.04 303.054 263.135 303.559 263.06 304.155C262.981 304.689 262.762 305.148 262.403 305.532C262.043 305.916 261.572 306.192 260.989 306.361C260.42 306.52 259.785 306.548 259.085 306.445ZM195.918 311.851C195.872 312.159 195.807 312.483 195.721 312.822L187.92 311.676C187.838 312.647 188.054 313.449 188.567 314.082C189.095 314.705 189.785 315.08 190.64 315.205C191.341 315.308 191.946 315.233 192.456 314.981C192.98 314.718 193.377 314.328 193.647 313.809L195.392 314.066C194.993 314.965 194.358 315.654 193.488 316.133C192.619 316.6 191.602 316.747 190.439 316.577C189.513 316.44 188.712 316.111 188.037 315.587C187.374 315.065 186.89 314.394 186.586 313.573C186.284 312.74 186.207 311.819 186.356 310.81C186.504 309.801 186.836 308.946 187.351 308.245C187.866 307.545 188.516 307.046 189.299 306.749C190.096 306.441 190.97 306.357 191.919 306.497C192.846 306.633 193.635 306.955 194.288 307.463C194.941 307.971 195.405 308.61 195.681 309.378C195.97 310.136 196.049 310.96 195.918 311.851ZM194.293 311.266C194.384 310.649 194.325 310.101 194.117 309.621C193.91 309.13 193.586 308.737 193.144 308.441C192.716 308.136 192.217 307.941 191.647 307.858C190.828 307.737 190.089 307.895 189.43 308.332C188.784 308.771 188.351 309.447 188.132 310.361L194.293 311.266ZM203.5 308.18C204.687 308.354 205.596 308.857 206.225 309.69C206.857 310.51 207.073 311.597 206.874 312.951L206.029 318.703L204.427 318.467L205.238 312.947C205.381 311.973 205.246 311.195 204.834 310.613C204.424 310.019 203.798 309.661 202.955 309.537C202.1 309.411 201.378 309.578 200.789 310.037C200.212 310.498 199.848 311.239 199.699 312.26L198.906 317.657L197.285 317.418L198.719 307.659L200.339 307.897L200.135 309.286C200.529 308.835 201.019 308.513 201.605 308.32C202.204 308.129 202.835 308.082 203.5 308.18ZM214.159 309.763C215.002 309.887 215.711 310.179 216.286 310.64C216.873 311.102 217.28 311.635 217.506 312.238L217.768 310.457L219.406 310.698L217.942 320.671C217.811 321.561 217.505 322.323 217.024 322.956C216.541 323.601 215.915 324.066 215.145 324.354C214.387 324.643 213.539 324.718 212.601 324.58C211.318 324.392 210.294 323.932 209.529 323.201C208.763 322.47 208.379 321.571 208.378 320.503L209.981 320.739C210.072 321.359 210.37 321.888 210.876 322.326C211.38 322.776 212.024 323.058 212.807 323.173C213.698 323.304 214.463 323.132 215.103 322.656C215.755 322.181 216.155 321.44 216.303 320.43L216.604 318.382C216.2 318.905 215.655 319.31 214.97 319.598C214.285 319.885 213.521 319.967 212.678 319.843C211.811 319.716 211.053 319.386 210.404 318.854C209.766 318.324 209.302 317.643 209.012 316.812C208.721 315.981 208.648 315.073 208.793 314.088C208.94 313.09 209.27 312.247 209.783 311.559C210.299 310.858 210.937 310.351 211.698 310.039C212.472 309.728 213.292 309.636 214.159 309.763ZM217.054 315.319C217.162 314.583 217.108 313.92 216.891 313.33C216.675 312.741 216.332 312.266 215.863 311.906C215.408 311.536 214.878 311.306 214.272 311.217C213.667 311.128 213.094 311.19 212.553 311.402C212.013 311.613 211.554 311.97 211.177 312.473C210.8 312.975 210.558 313.595 210.449 314.331C210.34 315.079 210.392 315.754 210.607 316.355C210.823 316.945 211.159 317.425 211.614 317.795C212.071 318.153 212.602 318.377 213.208 318.466C213.813 318.555 214.386 318.493 214.927 318.282C215.481 318.06 215.947 317.697 216.324 317.195C216.702 316.681 216.946 316.055 217.054 315.319ZM220.828 315.855C220.975 314.858 221.305 314.015 221.818 313.326C222.333 312.626 222.972 312.119 223.733 311.807C224.507 311.496 225.327 311.404 226.194 311.531C227.048 311.657 227.763 311.95 228.339 312.41C228.914 312.871 229.315 313.403 229.541 314.006L229.803 312.225L231.441 312.466L230.008 322.225L228.369 321.984L228.636 320.168C228.232 320.691 227.681 321.095 226.984 321.381C226.301 321.656 225.538 321.732 224.695 321.608C223.828 321.481 223.076 321.152 222.438 320.622C221.801 320.092 221.337 319.411 221.046 318.58C220.756 317.749 220.683 316.841 220.828 315.855ZM229.089 317.087C229.197 316.351 229.143 315.688 228.926 315.098C228.71 314.509 228.367 314.034 227.898 313.674C227.443 313.304 226.913 313.074 226.307 312.985C225.702 312.896 225.129 312.958 224.588 313.169C224.048 313.381 223.589 313.738 223.212 314.241C222.835 314.743 222.592 315.363 222.484 316.099C222.374 316.847 222.427 317.521 222.642 318.123C222.858 318.713 223.194 319.193 223.649 319.563C224.106 319.921 224.637 320.145 225.243 320.233C225.848 320.322 226.421 320.261 226.962 320.049C227.516 319.828 227.981 319.465 228.358 318.963C228.737 318.448 228.981 317.823 229.089 317.087ZM235.286 311.411C234.977 311.366 234.731 311.221 234.549 310.976C234.379 310.732 234.316 310.456 234.361 310.148C234.407 309.839 234.546 309.593 234.779 309.408C235.024 309.226 235.301 309.158 235.61 309.203C235.919 309.248 236.158 309.393 236.329 309.636C236.511 309.881 236.579 310.158 236.534 310.467C236.489 310.775 236.344 311.021 236.098 311.203C235.865 311.387 235.594 311.457 235.286 311.411ZM234.109 324.993C233.982 325.859 233.669 326.462 233.17 326.801C232.672 327.14 232.001 327.248 231.158 327.124L230.214 326.986L230.416 325.614L231.092 325.714C231.544 325.78 231.871 325.737 232.076 325.585C232.292 325.435 232.431 325.146 232.494 324.719L234.234 312.876L235.854 313.114L234.109 324.993ZM237.28 318.272C237.427 317.275 237.757 316.432 238.271 315.743C238.786 315.043 239.424 314.536 240.186 314.223C240.959 313.912 241.779 313.821 242.646 313.948C243.501 314.074 244.216 314.367 244.791 314.827C245.366 315.288 245.767 315.819 245.994 316.423L246.255 314.642L247.894 314.883L246.46 324.642L244.822 324.401L245.089 322.585C244.684 323.107 244.134 323.512 243.437 323.797C242.754 324.073 241.99 324.149 241.147 324.025C240.281 323.898 239.529 323.569 238.891 323.039C238.253 322.508 237.789 321.828 237.499 320.997C237.209 320.166 237.136 319.258 237.28 318.272ZM245.541 319.504C245.649 318.768 245.595 318.105 245.378 317.515C245.162 316.925 244.819 316.45 244.351 316.09C243.896 315.72 243.365 315.491 242.76 315.402C242.154 315.313 241.581 315.374 241.041 315.586C240.5 315.798 240.041 316.155 239.664 316.657C239.287 317.16 239.045 317.779 238.937 318.515C238.827 319.263 238.879 319.938 239.094 320.54C239.311 321.129 239.647 321.609 240.102 321.979C240.558 322.338 241.09 322.561 241.695 322.65C242.301 322.739 242.874 322.678 243.414 322.466C243.968 322.244 244.434 321.882 244.811 321.379C245.19 320.865 245.433 320.24 245.541 319.504ZM262.395 316.831C263.155 316.942 263.808 317.202 264.354 317.61C264.903 318.006 265.303 318.543 265.554 319.223C265.806 319.903 265.866 320.694 265.733 321.597L264.889 327.349L263.286 327.113L264.097 321.593C264.24 320.619 264.105 319.841 263.694 319.259C263.295 318.667 262.687 318.311 261.867 318.19C261.024 318.067 260.314 318.241 259.735 318.714C259.158 319.175 258.794 319.916 258.644 320.937L257.854 326.315L256.251 326.08L257.062 320.559C257.205 319.586 257.071 318.808 256.659 318.226C256.261 317.634 255.652 317.278 254.833 317.157C253.99 317.033 253.279 317.208 252.7 317.681C252.123 318.142 251.759 318.883 251.61 319.904L250.819 325.282L249.199 325.044L250.632 315.285L252.253 315.523L252.046 316.93C252.442 316.466 252.927 316.137 253.501 315.943C254.088 315.75 254.707 315.701 255.36 315.797C256.179 315.918 256.877 316.208 257.452 316.669C258.027 317.129 258.417 317.738 258.621 318.496C258.995 317.847 259.524 317.379 260.209 317.092C260.895 316.804 261.623 316.717 262.395 316.831ZM277.223 323.794C277.178 324.102 277.112 324.426 277.026 324.765L269.225 323.619C269.144 324.59 269.359 325.392 269.873 326.025C270.4 326.648 271.091 327.023 271.946 327.148C272.646 327.251 273.251 327.176 273.761 326.924C274.285 326.661 274.682 326.271 274.952 325.752L276.698 326.009C276.299 326.908 275.664 327.597 274.793 328.076C273.924 328.543 272.908 328.69 271.744 328.52C270.818 328.384 270.017 328.054 269.342 327.53C268.679 327.008 268.196 326.337 267.892 325.516C267.59 324.683 267.513 323.762 267.661 322.753C267.809 321.744 268.141 320.889 268.656 320.188C269.171 319.488 269.821 318.989 270.604 318.692C271.401 318.384 272.275 318.3 273.225 318.44C274.151 318.576 274.94 318.898 275.593 319.406C276.246 319.915 276.711 320.553 276.986 321.321C277.275 322.079 277.354 322.903 277.223 323.794ZM275.599 323.209C275.689 322.592 275.631 322.044 275.422 321.564C275.215 321.073 274.891 320.68 274.449 320.384C274.021 320.079 273.522 319.884 272.952 319.801C272.133 319.68 271.394 319.838 270.736 320.275C270.089 320.714 269.656 321.39 269.437 322.304L275.599 323.209ZM284.805 320.123C285.992 320.297 286.901 320.8 287.531 321.633C288.162 322.453 288.378 323.54 288.18 324.894L287.335 330.646L285.732 330.41L286.543 324.89C286.686 323.916 286.551 323.138 286.14 322.556C285.73 321.962 285.103 321.604 284.26 321.48C283.405 321.354 282.683 321.521 282.094 321.98C281.517 322.441 281.154 323.182 281.004 324.203L280.211 329.6L278.591 329.361L280.024 319.602L281.645 319.84L281.441 321.229C281.834 320.778 282.324 320.456 282.911 320.263C283.509 320.072 284.14 320.025 284.805 320.123ZM293.196 322.902L292.351 328.654C292.281 329.129 292.333 329.482 292.505 329.713C292.679 329.933 293.015 330.079 293.514 330.153L294.707 330.328L294.505 331.699L293.045 331.485C292.143 331.352 291.497 331.045 291.106 330.563C290.716 330.081 290.591 329.366 290.731 328.416L291.575 322.664L290.311 322.478L290.507 321.142L291.772 321.328L292.133 318.87L293.753 319.108L293.392 321.566L295.939 321.94L295.743 323.276L293.196 322.902ZM300.702 332.773C299.788 332.639 298.987 332.309 298.3 331.784C297.625 331.26 297.13 330.587 296.814 329.764C296.512 328.931 296.435 328.01 296.583 327.001C296.729 326.004 297.072 325.157 297.611 324.46C298.164 323.753 298.844 323.252 299.651 322.958C300.46 322.653 301.328 322.568 302.254 322.704C303.18 322.84 303.986 323.171 304.673 323.696C305.362 324.21 305.864 324.878 306.18 325.7C306.508 326.525 306.597 327.441 306.449 328.451C306.301 329.46 305.944 330.317 305.38 331.022C304.829 331.718 304.143 332.217 303.322 332.521C302.501 332.825 301.628 332.909 300.702 332.773ZM300.911 331.348C301.493 331.434 302.059 331.378 302.61 331.18C303.16 330.981 303.63 330.632 304.019 330.131C304.42 329.632 304.678 328.991 304.793 328.207C304.908 327.424 304.851 326.736 304.623 326.145C304.394 325.553 304.05 325.09 303.59 324.756C303.131 324.409 302.611 324.194 302.029 324.108C301.436 324.021 300.869 324.077 300.331 324.277C299.805 324.467 299.354 324.813 298.977 325.315C298.6 325.818 298.354 326.461 298.239 327.245C298.122 328.04 298.166 328.732 298.371 329.32C298.587 329.91 298.919 330.377 299.366 330.721C299.814 331.054 300.329 331.263 300.911 331.348ZM311.292 334.329C310.544 334.219 309.891 333.996 309.334 333.659C308.779 333.311 308.362 332.886 308.084 332.384C307.808 331.87 307.696 331.314 307.747 330.715L309.421 330.961C309.397 331.455 309.564 331.886 309.923 332.254C310.293 332.623 310.811 332.857 311.475 332.955C312.093 333.046 312.6 332.981 312.996 332.76C313.392 332.539 313.621 332.221 313.682 331.805C313.745 331.378 313.601 331.035 313.251 330.778C312.902 330.508 312.345 330.214 311.579 329.895C310.883 329.599 310.317 329.322 309.882 329.064C309.46 328.796 309.111 328.447 308.835 328.019C308.572 327.58 308.486 327.046 308.579 326.416C308.652 325.918 308.868 325.483 309.226 325.111C309.583 324.739 310.053 324.474 310.634 324.317C311.217 324.148 311.858 324.115 312.559 324.218C313.639 324.376 314.472 324.777 315.056 325.421C315.641 326.065 315.887 326.865 315.795 327.822L314.175 327.584C314.214 327.068 314.066 326.628 313.732 326.264C313.409 325.901 312.933 325.673 312.304 325.581C311.722 325.496 311.241 325.552 310.86 325.751C310.479 325.95 310.259 326.251 310.2 326.655C310.152 326.975 310.214 327.257 310.385 327.5C310.569 327.734 310.805 327.938 311.095 328.114C311.398 328.28 311.817 328.481 312.353 328.717C313.025 329.01 313.567 329.284 313.979 329.538C314.392 329.781 314.726 330.109 314.98 330.522C315.247 330.938 315.342 331.443 315.267 332.038C315.188 332.572 314.969 333.031 314.61 333.415C314.25 333.799 313.779 334.076 313.196 334.245C312.627 334.404 311.992 334.432 311.292 334.329Z" fill="#393939"/>
<path id="hexagono (5) 1 (Traced)" fill-rule="evenodd" clip-rule="evenodd" d="M57.1214 58.265C52.2202 59.1057 48.2011 61.3424 44.714 65.1693C43.0624 66.9818 37.837 75.7131 22.1144 102.931C9.68037 124.457 1.34561 139.293 0.852246 140.778C-0.284082 144.199 -0.284082 150.442 0.852246 153.863C1.34561 155.348 9.68037 170.184 22.1144 191.71C43.9519 229.514 44.4339 230.255 49.1897 233.338C50.4702 234.169 52.7554 235.237 54.2679 235.713L57.0186 236.578H99.7921H142.566L145.316 235.713C149.848 234.287 154.133 231.113 156.806 227.203C159.822 222.792 198.062 155.872 198.752 153.798C199.858 150.476 199.858 144.165 198.752 140.843C198.019 138.638 160.213 72.6764 156.792 67.633C153.974 63.4775 150.108 60.499 145.495 58.9275L142.956 58.0627L100.964 58.0053C77.8683 57.9732 58.1394 58.0904 57.1214 58.265ZM144.41 67.7537C145.689 68.3822 147.335 69.6342 148.26 70.6834C150.285 72.9791 190.297 142.25 190.703 144.162C191.182 146.415 190.971 150.128 190.272 151.776C189.916 152.614 180.707 168.783 169.806 187.704C148.01 225.541 147.888 225.725 143.538 227.238C141.479 227.955 139.729 227.985 99.5968 227.985H57.7999L55.2394 226.771C53.6085 225.998 52.1429 224.935 51.2034 223.842C49.0241 221.306 10.0019 153.851 9.08311 151.031C8.12686 148.096 8.32295 145.054 9.65498 142.168C10.8077 139.669 48.0999 74.9303 50.0362 72.0662C51.6144 69.7314 53.6854 68.1799 56.5499 67.185C58.4659 66.5197 60.9558 66.4846 100.378 66.5678L142.175 66.6564L144.41 67.7537Z" fill="#EC2390"/>
<path id="hexagono (5) 1 (Traced)_2" fill-rule="evenodd" clip-rule="evenodd" d="M275.121 0.265042C270.22 1.10567 266.201 3.34239 262.714 7.16934C261.062 8.98184 255.837 17.7131 240.114 44.9314C227.68 66.4568 219.346 81.2928 218.852 82.7775C217.716 86.1994 217.716 92.4416 218.852 95.8635C219.346 97.3482 227.68 112.184 240.114 133.71C261.952 171.514 262.434 172.255 267.19 175.338C268.47 176.169 270.755 177.237 272.268 177.713L275.019 178.578H317.792H360.566L363.316 177.713C367.848 176.287 372.133 173.113 374.806 169.203C377.822 164.792 416.062 97.8717 416.752 95.7982C417.858 92.4756 417.858 86.1654 416.752 82.8432C416.019 80.6381 378.213 14.6764 374.792 9.63301C371.974 5.47754 368.108 2.49903 363.495 0.927542L360.956 0.062698L318.964 0.0052764C295.868 -0.0267549 276.139 0.0904323 275.121 0.265042ZM362.41 9.75371C363.689 10.3822 365.335 11.6342 366.26 12.6834C368.285 14.9791 408.297 84.2502 408.703 86.1619C409.182 88.415 408.971 92.1279 408.272 93.7756C407.916 94.6143 398.707 110.783 387.806 129.704C366.01 167.541 365.888 167.725 361.538 169.238C359.479 169.955 357.729 169.985 317.597 169.985H275.8L273.239 168.771C271.608 167.998 270.143 166.935 269.203 165.842C267.024 163.306 228.002 95.851 227.083 93.0314C226.127 90.0955 226.323 87.0545 227.655 84.1678C228.808 81.6689 266.1 16.9303 268.036 14.0662C269.614 11.7314 271.685 10.1799 274.55 9.18496C276.466 8.51973 278.956 8.48457 318.378 8.56778L360.175 8.65645L362.41 9.75371Z" fill="#E8EC23"/>
<path id="hexagono (5) 1 (Traced)_3" fill-rule="evenodd" clip-rule="evenodd" d="M228.456 203.873C223.484 203.785 219.119 205.234 214.98 208.344C213.019 209.817 206.259 217.422 185.74 241.234C169.513 260.065 158.56 273.089 157.798 274.455C156.044 277.606 154.881 283.739 155.36 287.312C155.568 288.863 160.992 304.992 169.198 328.457C183.609 369.669 183.944 370.487 188.042 374.402C189.146 375.456 191.192 376.932 192.589 377.681L195.13 379.044L237.155 387.014L279.179 394.984L282.043 394.646C286.761 394.09 291.562 391.77 294.917 388.427C298.702 384.654 348.742 326.031 349.806 324.123C351.511 321.064 352.687 314.865 352.22 311.395C351.91 309.091 327.057 237.241 324.636 231.648C322.641 227.04 319.399 223.394 315.159 220.99L312.826 219.667L271.58 211.787C248.894 207.452 229.489 203.891 228.456 203.873ZM312.448 229.459C313.588 230.315 314.971 231.852 315.685 233.055C317.246 235.688 343.651 311.202 343.693 313.155C343.744 315.458 342.846 319.067 341.852 320.555C341.346 321.313 329.285 335.482 315.049 352.042C286.585 385.155 286.43 385.313 281.875 385.989C279.719 386.309 277.994 386.012 238.564 378.534L197.499 370.746L195.21 369.077C193.751 368.014 192.51 366.696 191.79 365.447C190.121 362.55 164.352 289.005 163.974 286.063C163.582 283.001 164.341 280.049 166.188 277.462C167.786 275.221 216.488 218.565 218.924 216.112C220.909 214.112 223.233 212.974 226.233 212.53C228.239 212.233 230.692 212.663 269.408 220.09L310.457 227.965L312.448 229.459Z" fill="#0FBFE6"/>
</g>
</svg>
