<svg width="276" height="232" viewBox="0 0 276 232" fill="none" xmlns="http://www.w3.org/2000/svg">
<path fill-rule="evenodd" clip-rule="evenodd" d="M76.9102 164.539C76.162 165.243 75.1702 166.301 74.7063 166.892C73.7737 168.079 50.2297 205.532 49.2126 207.446C48.2323 209.29 47.2528 213.193 47.1852 215.523C47.1519 216.677 47.2772 218.617 47.4635 219.835L47.8028 222.05L59.7655 244.976L71.7282 267.902L73.4197 269.515C75.872 271.853 78.2244 273.224 81.613 274.287C84.5142 275.197 85.2709 275.256 107.998 276.346C120.867 276.964 131.986 277.424 132.706 277.369C136.427 277.084 141.125 275.109 144.073 272.59C146.851 270.215 151.62 262.898 151.627 261C151.64 257.605 148.134 255.489 145.163 257.097C144.2 257.618 143.699 258.23 142.001 260.953C139.539 264.9 138.489 266.049 136.264 267.229C133.956 268.453 132.897 268.627 128.792 268.453C120.481 268.101 88.6235 266.527 86.7821 266.378C84.2563 266.172 82.6991 265.576 80.6613 264.035L79.0628 262.827L67.6052 240.869L56.1476 218.911L56.0992 216.613C56.0727 215.349 56.2587 213.688 56.5128 212.921C57.0392 211.334 80.9885 173.016 82.3979 171.506C83.6034 170.215 86.5903 168.666 88.3673 168.411C90.4424 168.113 135.457 170.39 137.09 170.876C137.864 171.106 139.333 171.904 140.355 172.649L142.212 174.003L153.67 195.961L165.128 217.919L165.205 219.728C165.326 222.532 164.82 224.276 163.004 227.313C161.09 230.515 160.882 231.604 161.835 233.432C162.65 234.993 163.962 235.745 165.847 235.733C167.773 235.72 168.647 235.009 170.643 231.829C173.532 227.224 174.624 222.2 173.841 217.116L173.486 214.806L161.523 191.879L149.56 168.953L147.869 167.34C144.885 164.495 140.737 162.387 137.023 161.828C135.712 161.631 105.037 160.039 92.437 159.515C87.4011 159.305 85.6563 159.645 81.6253 161.618C78.9407 162.933 77.9991 163.516 76.9102 164.539Z" fill="#E8EC23"/>
<path fill-rule="evenodd" clip-rule="evenodd" d="M202.128 41.0336C201.28 41.8309 200.156 43.0311 199.63 43.7005C198.573 45.0467 171.884 87.5017 170.731 89.672C169.62 91.7626 168.509 96.1869 168.433 98.8275C168.395 100.136 168.537 102.335 168.748 103.716L169.133 106.227L182.693 132.215L196.254 158.204L198.171 160.032C200.951 162.683 203.618 164.236 207.459 165.441C210.748 166.473 211.606 166.54 237.369 167.776C251.957 168.476 264.561 168.998 265.377 168.935C269.596 168.613 274.921 166.374 278.262 163.518C281.412 160.826 286.818 152.531 286.826 150.379C286.84 146.531 282.866 144.133 279.498 145.956C278.407 146.546 277.838 147.239 275.913 150.326C273.123 154.801 271.933 156.103 269.411 157.441C266.794 158.828 265.594 159.025 260.94 158.828C251.519 158.43 215.406 156.645 213.319 156.476C210.456 156.243 208.69 155.567 206.38 153.82L204.568 152.451L191.58 127.56L178.592 102.668L178.537 100.063C178.507 98.6304 178.718 96.7472 179.006 95.8787C179.603 94.0789 206.751 50.6423 208.349 48.931C209.716 47.4675 213.101 45.7117 215.116 45.4227C217.468 45.085 268.496 47.6664 270.347 48.2168C271.224 48.4776 272.89 49.382 274.048 50.2262L276.154 51.7614L289.142 76.6526L302.13 101.544L302.218 103.595C302.354 106.773 301.781 108.75 299.722 112.193C297.553 115.822 297.317 117.057 298.398 119.129C299.321 120.898 300.808 121.752 302.945 121.738C305.129 121.723 306.12 120.917 308.382 117.311C311.657 112.092 312.894 106.397 312.007 100.633L311.604 98.0145L298.044 72.026L284.483 46.0374L282.566 44.2088C279.183 40.9834 274.481 38.5937 270.271 37.9607C268.785 37.7371 234.012 35.9327 219.729 35.3378C214.021 35.1002 212.043 35.4851 207.473 37.7224C204.43 39.2123 203.363 39.8736 202.128 41.0336Z" fill="#0FBFE6"/>
<path fill-rule="evenodd" clip-rule="evenodd" d="M154.834 124.031C153.856 124.95 152.561 126.333 151.955 127.104C150.737 128.655 119.987 177.57 118.659 180.071C117.378 182.479 116.099 187.577 116.011 190.619C115.967 192.126 116.131 194.661 116.374 196.251L116.817 199.144L132.441 229.087L148.065 259.03L150.275 261.136C153.478 264.19 156.55 265.98 160.976 267.368C164.765 268.558 165.753 268.635 195.436 270.059C212.244 270.865 226.765 271.466 227.706 271.394C232.567 271.022 238.702 268.443 242.552 265.152C246.181 262.051 252.409 252.494 252.418 250.015C252.435 245.581 247.856 242.818 243.975 244.918C242.719 245.598 242.064 246.397 239.846 249.954C236.63 255.109 235.259 256.61 232.354 258.151C229.339 259.749 227.956 259.976 222.594 259.749C211.739 259.29 170.132 257.234 167.727 257.039C164.428 256.77 162.394 255.992 159.733 253.98L157.645 252.401L142.681 223.723L127.716 195.044L127.653 192.043C127.618 190.392 127.861 188.222 128.193 187.222C128.881 185.148 160.16 135.102 162.001 133.13C163.575 131.444 167.476 129.421 169.797 129.088C172.507 128.699 231.299 131.673 233.432 132.308C234.443 132.608 236.362 133.65 237.696 134.623L240.122 136.392L255.087 165.07L270.051 193.749L270.152 196.112C270.31 199.774 269.649 202.051 267.277 206.018C264.777 210.2 264.506 211.622 265.751 214.009C266.815 216.048 268.528 217.031 270.99 217.015C273.506 216.998 274.648 216.069 277.254 211.915C281.027 205.902 282.453 199.34 281.432 192.7L280.967 189.682L265.343 159.739L249.719 129.797L247.51 127.69C243.613 123.974 238.195 121.22 233.345 120.491C231.632 120.233 191.568 118.154 175.112 117.469C168.535 117.195 166.257 117.639 160.992 120.216C157.485 121.933 156.256 122.695 154.834 124.031Z" fill="#EC2390"/>
</svg>
