<svg width="122" height="125" viewBox="0 0 122 125" fill="none" xmlns="http://www.w3.org/2000/svg">
<path fill-rule="evenodd" clip-rule="evenodd" d="M41.0298 3.48608C41.6361 3.05574 42.8749 2.32915 43.7828 1.87158C45.1039 1.20589 46.1615 0.916523 49.0792 0.422618C53.4603 -0.319 55.212 -0.151366 59.9338 1.46177C71.7477 5.49823 100.422 15.6235 101.611 16.1791C104.98 17.752 108.326 20.9181 110.359 24.4573L111.512 26.4636L116.431 51.5875L121.349 76.7113L121.038 79.0043C120.353 84.0511 117.906 88.5135 113.87 92.0735C111.083 94.5323 110.053 94.9624 108.22 94.4334C106.428 93.9158 105.394 92.8329 105.059 91.122C104.667 89.1194 105.17 88.1436 107.886 85.6419C110.463 83.2683 111.433 81.7552 112.106 79.0593L112.54 77.3199L107.83 53.2568L103.119 29.1938L101.736 27.3866C100.975 26.3927 99.8043 25.2227 99.1342 24.7869C97.7201 23.8674 55.6257 9.06458 53.5721 8.76464C51.8134 8.50768 48.543 9.13928 47.036 10.0264C45.2741 11.0638 11.7777 40.715 10.8322 42.0744C10.3758 42.7304 9.73267 44.2552 9.40294 45.4626L8.80348 47.6579L13.5143 71.7209L18.2251 95.784L19.4033 97.3799C20.9052 99.415 22.2162 100.418 24.5563 101.322C26.2623 101.982 56.0633 112.422 63.8544 115.09C67.7032 116.407 68.757 116.54 71.2924 116.026C73.7357 115.531 75.0548 114.735 78.5004 111.679C80.8773 109.57 81.5253 109.131 82.5849 108.907C85.8574 108.215 88.5911 111.208 87.626 114.427C87.0862 116.227 80.5043 121.834 77.1996 123.308C73.6938 124.872 68.6796 125.428 65.0669 124.653C64.3673 124.503 53.9412 120.944 41.8977 116.744C20.6283 109.327 19.9265 109.058 17.428 107.379C14.5097 105.418 12.6612 103.457 10.9898 100.548L9.837 98.5421L4.9185 73.4182L0 48.2944L0.299882 46.0966C0.465037 44.888 0.890987 43.0106 1.2467 41.9245C1.96503 39.7321 3.9909 36.3019 5.43939 34.8265C6.94268 33.2945 39.811 4.35162 41.0298 3.48608ZM87.8534 78.751C89.8047 79.2081 91.429 78.006 91.8892 76.0633C92.0777 74.2121 91.0489 72.2321 88.9389 72.1303C72.3232 68.8483 54.488 73.4163 36.3809 85.1998C35.015 86.3007 34.2948 88.3403 35.4942 89.9704C36.5952 91.3364 38.6449 92.0577 40.2589 90.8544C56.9091 79.9147 72.8279 75.7647 87.8534 78.751ZM87.8181 62.7793C90.1262 63.3994 92.1751 61.748 92.8012 59.4426C93.4186 57.1404 91.6763 54.8344 89.8202 54.6329C70.0257 50.7642 45.5647 56.6167 28.7184 69.4007C26.8326 70.6953 26.6661 73.4264 27.9608 75.3122C29.2554 77.198 31.9865 77.3645 33.868 76.0715C48.3069 64.7715 70.59 59.4295 87.8181 62.7793ZM25.3626 61.1883C39.377 50.3376 67.5774 41.0148 87.8977 44.6926C90.7153 45.1179 93.5516 43.183 94.1674 40.8765C94.5954 38.0529 92.6535 35.2242 89.8342 34.7945C66.3319 30.5213 35.5321 40.8125 19.1105 53.1472C17.0633 54.8029 16.4705 57.979 18.2204 60.2922C19.8718 62.341 23.0522 62.9322 25.3626 61.1883Z" fill="#EC2390" fill-opacity="0.72"/>
</svg>
